<?xml version="1.0" encoding="utf-8"?>
<!-- Generator: Adobe Illustrator 21.0.0, SVG Export Plug-In . SVG Version: 6.00 Build 0)  -->
<svg version="1.1" id="Layer_1" xmlns="http://www.w3.org/2000/svg" xmlns:xlink="http://www.w3.org/1999/xlink" x="0px" y="0px"
	 viewBox="0 0 87.3 38.6" style="enable-background:new 0 0 87.3 38.6;" xml:space="preserve">
<path d="M73.8,38.6H63.4c-4,0-7.7-1.7-10.3-4.7l-9.4-9.1l-9.4,9.1c-2.6,3-6.3,4.7-10.3,4.7H13.5C6.1,38.6,0,32.6,0,25.1V13.5
	C0,6.1,6.1,0,13.5,0H24c4,0,7.7,1.7,10.3,4.7l9.4,9.1l9.4-9.1c2.6-3,6.3-4.7,10.3-4.7h10.4c7.5,0,13.5,6.1,13.5,13.5v11.6
	C87.3,32.6,81.3,38.6,73.8,38.6z M49.4,19.3l9.7,9.3c1.1,1.3,2.6,2,4.3,2h10.4c3.1,0,5.5-2.5,5.5-5.5V13.5c0-3.1-2.5-5.5-5.5-5.5
	H63.4c-1.7,0-3.2,0.7-4.3,2l-0.3,0.3L49.4,19.3z M13.5,8C10.5,8,8,10.5,8,13.5v11.6c0,3.1,2.5,5.5,5.5,5.5H24c1.7,0,3.2-0.7,4.3-2
	l0.3-0.3l9.4-9L28.2,10c-1.1-1.3-2.6-2-4.3-2H13.5z"/>
</svg>
